{
  "accessors": [
    {
      "bufferView": 2,
      "componentType": 5126,
      "count": 5044,
      "max": [
        0.9500001072883606,
        0.9500089883804321,
        0.06529027968645096
      ],
      "min": [
        -0.9500000476837158,
        -0.9500463008880615,
        -0.06947679072618484
      ],
      "type": "VEC3"
    },
    {
      "bufferView": 2,
      "byteOffset": 60528,
      "componentType": 5126,
      "count": 5044,
      "max": [
        0.7500718235969543,
        0.7575967907905579,
        0.9999990463256836
      ],
      "min": [
        -0.980614423751831,
        -0.8196478486061096,
        0.1824963539838791
      ],
      "type": "VEC3"
    },
    {
      "bufferView": 3,
      "componentType": 5126,
      "count": 5044,
      "max": [
        1.0,
        0.22118346393108368,
        0.9831222891807556,
        1.0
      ],
      "min": [
        0.18294966220855713,
        -0.47713205218315125,
        -0.7639642357826233,
        1.0
      ],
      "type": "VEC4"
    },
    {
      "bufferView": 1,
      "componentType": 5126,
      "count": 5044,
      "max": [
        0.9750001430511475,
        0.9750138521194458
      ],
      "min": [
        0.024999886751174927,
        0.0249861478805542
      ],
      "type": "VEC2"
    },
    {
      "bufferView": 0,
      "componentType": 5125,
      "count": 29259,
      "type": "SCALAR"
    },
    {
      "bufferView": 2,
      "byteOffset": 121056,
      "componentType": 5126,
      "count": 812,
      "max": [
        0.9500001072883606,
        0.9500089883804321,
        0.04822879284620285
      ],
      "min": [
        -0.9500000476837158,
        -0.9500463008880615,
        -0.09094920754432678
      ],
      "type": "VEC3"
    },
    {
      "bufferView": 2,
      "byteOffset": 130800,
      "componentType": 5126,
      "count": 812,
      "max": [
        1.0,
        1.0,
        8.148795132001396e-07
      ],
      "min": [
        -1.0,
        -1.0,
        -1.0
      ],
      "type": "VEC3"
    },
    {
      "bufferView": 1,
      "byteOffset": 40352,
      "componentType": 5126,
      "count": 812,
      "max": [
        0.9750001430511475,
        0.9750138521194458
      ],
      "min": [
        0.024999886751174927,
        0.0249861478805542
      ],
      "type": "VEC2"
    },
    {
      "bufferView": 0,
      "byteOffset": 117036,
      "componentType": 5125,
      "count": 2004,
      "type": "SCALAR"
    }
  ],
  "asset": {
    "extras": {
      "author": "SebastianSosnowski (https://sketchfab.com/SebastianSosnowski)",
      "license": "CC-BY-4.0 (http://creativecommons.org/licenses/by/4.0/)",
      "source": "https://sketchfab.com/3d-models/moon-petavius-crater-ce9c009b517b421eab8c8429b536382f",
      "title": "Moon - Petavius crater"
    },
    "generator": "Sketchfab-12.67.0",
    "version": "2.0"
  },
  "bufferViews": [
    {
      "buffer": 0,
      "byteLength": 125052,
      "name": "floatBufferViews",
      "target": 34963
    },
    {
      "buffer": 0,
      "byteLength": 46848,
      "byteOffset": 125052,
      "byteStride": 8,
      "name": "floatBufferViews",
      "target": 34962
    },
    {
      "buffer": 0,
      "byteLength": 140544,
      "byteOffset": 171900,
      "byteStride": 12,
      "name": "floatBufferViews",
      "target": 34962
    },
    {
      "buffer": 0,
      "byteLength": 80704,
      "byteOffset": 312444,
      "byteStride": 16,
      "name": "floatBufferViews",
      "target": 34962
    }
  ],
  "buffers": [
    {
      "byteLength": 393148,
      "uri": "scene.bin"
    }
  ],
  "images": [
    {
      "uri": "textures/material_baseColor.jpeg"
    },
    {
      "uri": "textures/material_metallicRoughness.png"
    },
    {
      "uri": "textures/material_normal.png"
    }
  ],
  "materials": [
    {
      "name": "material",
      "normalTexture": {
        "index": 2
      },
      "occlusionTexture": {
        "index": 1
      },
      "pbrMetallicRoughness": {
        "baseColorTexture": {
          "index": 0
        },
        "metallicFactor": 0.0,
        "metallicRoughnessTexture": {
          "index": 1
        }
      }
    },
    {
      "doubleSided": true,
      "name": "material_1",
      "pbrMetallicRoughness": {
        "baseColorFactor": [
          0.0,
          0.0,
          0.0,
          1.0
        ],
        "roughnessFactor": 0.0
      }
    }
  ],
  "meshes": [
    {
      "name": "Petavius_ZB_LP_1_0",
      "primitives": [
        {
          "attributes": {
            "NORMAL": 1,
            "POSITION": 0,
            "TANGENT": 2,
            "TEXCOORD_0": 3
          },
          "indices": 4,
          "material": 0,
          "mode": 4
        }
      ]
    },
    {
      "name": "Petavius_ZB_LP_2_0",
      "primitives": [
        {
          "attributes": {
            "NORMAL": 6,
            "POSITION": 5,
            "TEXCOORD_0": 7
          },
          "indices": 8,
          "material": 1,
          "mode": 4
        }
      ]
    }
  ],
  "nodes": [
    {
      "children": [
        1
      ],
      "matrix": [
        1.1704572439193726,
        0.0,
        0.0,
        0.0,
        0.0,
        2.598937163077181e-16,
        -1.1704572439193726,
        0.0,
        0.0,
        1.1704572439193726,
        2.598937163077181e-16,
        0.0,
        0.0,
        0.0,
        0.0,
        1.0
      ],
      "name": "Sketchfab_model"
    },
    {
      "children": [
        2
      ],
      "matrix": [
        1.0,
        0.0,
        0.0,
        0.0,
        0.0,
        0.0,
        1.0,
        0.0,
        0.0,
        -1.0,
        0.0,
        0.0,
        0.0,
        0.0,
        0.0,
        1.0
      ],
      "name": "c066cd4c684f4c348f58d709042cedc9.fbx"
    },
    {
      "children": [
        3
      ],
      "name": "RootNode"
    },
    {
      "children": [
        4,
        5
      ],
      "matrix": [
        1.0,
        0.0,
        0.0,
        0.0,
        0.0,
        2.220446049250313e-16,
        -1.0,
        0.0,
        0.0,
        1.0,
        2.220446049250313e-16,
        0.0,
        0.0,
        0.0,
        0.0,
        1.0
      ],
      "name": "Petavius_ZB_LP"
    },
    {
      "mesh": 0,
      "name": "Petavius_ZB_LP_1_0"
    },
    {
      "mesh": 1,
      "name": "Petavius_ZB_LP_2_0"
    }
  ],
  "samplers": [
    {
      "magFilter": 9729,
      "minFilter": 9987,
      "wrapS": 10497,
      "wrapT": 10497
    }
  ],
  "scene": 0,
  "scenes": [
    {
      "name": "Sketchfab_Scene",
      "nodes": [
        0
      ]
    }
  ],
  "textures": [
    {
      "sampler": 0,
      "source": 0
    },
    {
      "sampler": 0,
      "source": 1
    },
    {
      "sampler": 0,
      "source": 2
    }
  ]
}
