{
	"asset":{
		"copyright":"tex",
		"generator":"Khronos glTF Blender I/O v3.6.27",
		"version":"2.0"
	},
	"extensionsUsed":[
		"KHR_materials_unlit"
	],
	"scene":0,
	"scenes":[
		{
			"name":"Scene",
			"nodes":[
				2
			]
		}
	],
	"nodes":[
		{
			"mesh":0,
			"name":"Object_16",
			"translation":[
				-119.12572479248047,
				70.33700561523438,
				-16.43937873840332
			]
		},
		{
			"children":[
				0
			],
			"name":"mars_one_base.obj.cleaner"
		},
		{
			"children":[
				1
			],
			"name":"Sketchfab_model",
			"rotation":[
				-0.70710688829422,
				0,
				0,
				0.7071066498756409
			],
			"scale":[
				0.019999999552965164,
				0.020000001415610313,
				0.020000001415610313
			]
		}
	],
	"materials":[
		{
			"doubleSided":true,
			"extensions":{
				"KHR_materials_unlit":{}
			},
			"name":"material_14",
			"pbrMetallicRoughness":{
				"baseColorTexture":{
					"index":0,
					"texCoord":0
				},
				"metallicFactor":0,
				"roughnessFactor":0.9
			}
		}
	],
	"meshes":[
		{
			"name":"Object_14",
			"primitives":[
				{
					"attributes":{
						"POSITION":0,
						"NORMAL":1,
						"TEXCOORD_0":2,
						"TEXCOORD_1":3
					},
					"indices":4,
					"material":0
				}
			]
		}
	],
	"textures":[
		{
			"sampler":0,
			"source":0
		}
	],
	"images":[
		{
			"mimeType":"image/jpeg",
			"name":"material_14_baseColor",
			"uri":"texture/material_14_baseColor.jpg"
		}
	],
	"accessors":[
		{
			"bufferView":0,
			"componentType":5126,
			"count":22930,
			"max":[
				141.9261932373047,
				-44.81990051269531,
				96.3761978149414
			],
			"min":[
				105.7051010131836,
				-86.14309692382812,
				15.342599868774414
			],
			"type":"VEC3"
		},
		{
			"bufferView":1,
			"componentType":5126,
			"count":22930,
			"type":"VEC3"
		},
		{
			"bufferView":2,
			"componentType":5126,
			"count":22930,
			"type":"VEC2"
		},
		{
			"bufferView":3,
			"componentType":5126,
			"count":22930,
			"type":"VEC2"
		},
		{
			"bufferView":4,
			"componentType":5123,
			"count":63228,
			"type":"SCALAR"
		}
	],
	"bufferViews":[
		{
			"buffer":0,
			"byteLength":275160,
			"byteOffset":0,
			"target":34962
		},
		{
			"buffer":0,
			"byteLength":275160,
			"byteOffset":275160,
			"target":34962
		},
		{
			"buffer":0,
			"byteLength":183440,
			"byteOffset":550320,
			"target":34962
		},
		{
			"buffer":0,
			"byteLength":183440,
			"byteOffset":733760,
			"target":34962
		},
		{
			"buffer":0,
			"byteLength":126456,
			"byteOffset":917200,
			"target":34963
		}
	],
	"samplers":[
		{
			"magFilter":9729,
			"minFilter":9987
		}
	],
	"buffers":[
		{
			"byteLength":1043656,
			"uri":"scene.bin"
		}
	]
}
